<svg width="45" height="45" viewBox="0 0 45 45" fill="none" xmlns="http://www.w3.org/2000/svg">
<path d="M22.4972 0C10.0744 0 0 10.3288 0 23.0702C0 33.2611 6.44625 41.9067 15.39 44.96C16.515 45.1725 16.9256 44.4602 16.9256 43.8484C16.9256 43.2998 16.9059 41.8493 16.8947 39.9249C10.6369 41.3179 9.315 36.8314 9.315 36.8314C8.29406 34.1659 6.8175 33.4565 6.8175 33.4565C4.77281 32.0261 6.96937 32.0548 6.96937 32.0548C9.22781 32.2185 10.4147 34.433 10.4147 34.433C12.4228 37.9573 15.6825 36.9406 16.965 36.3489C17.1675 34.8581 17.7497 33.8413 18.3937 33.264C13.3988 32.6809 8.145 30.7019 8.145 21.8639C8.145 19.3449 9.0225 17.2855 10.4625 15.6712C10.2291 15.0882 9.45844 12.7415 10.6819 9.56761C10.6819 9.56761 12.5719 8.94719 16.8694 11.9315C18.6637 11.4202 20.5875 11.1646 22.5028 11.156C24.4125 11.1675 26.3391 11.4202 28.1362 11.9344C32.4309 8.95006 34.3181 9.57048 34.3181 9.57048C35.5444 12.7472 34.7738 15.091 34.5431 15.6741C35.9859 17.2883 36.855 19.3478 36.855 21.8668C36.855 30.7278 31.5956 32.6781 26.5837 33.2497C27.3909 33.962 28.1109 35.3694 28.1109 37.5208C28.1109 40.6056 28.0828 43.093 28.0828 43.8484C28.0828 44.466 28.4878 45.184 29.6297 44.9571C38.5594 41.901 45 33.2583 45 23.0702C45 10.3288 34.9256 0 22.4972 0Z" fill="white"/>
</svg>
