<svg width="45" height="45" viewBox="0 0 45 45" fill="none" xmlns="http://www.w3.org/2000/svg">
<path d="M22.5 0C10.0755 0 0 10.0755 0 22.5C0 34.9245 10.0755 45 22.5 45C34.9245 45 45 34.9245 45 22.5C45 10.0755 34.9245 0 22.5 0ZM15.9618 34.0137H10.482V17.5277H15.9618V34.0137ZM13.222 15.2765H13.1863C11.3475 15.2765 10.1582 14.0107 10.1582 12.4286C10.1582 10.8109 11.3839 9.58008 13.2584 9.58008C15.133 9.58008 16.2865 10.8109 16.3223 12.4286C16.3223 14.0107 15.133 15.2765 13.222 15.2765ZM35.7207 34.0137H30.2416V25.1941C30.2416 22.9776 29.4482 21.4659 27.4655 21.4659C25.9518 21.4659 25.0502 22.4856 24.654 23.4699C24.5091 23.8221 24.4738 24.3145 24.4738 24.8071V34.0137H18.9943C18.9943 34.0137 19.0661 19.0743 18.9943 17.5277H24.4738V19.8619C25.202 18.7386 26.5049 17.1407 29.4121 17.1407C33.0173 17.1407 35.7207 19.497 35.7207 24.5606V34.0137Z" fill="white"/>
</svg>
