<svg xmlns="http://www.w3.org/2000/svg" xmlns:xlink="http://www.w3.org/1999/xlink" aria-hidden="true" role="img" width="1em" height="1em" preserveAspectRatio="xMidYMid meet" viewBox="0 0 36 36"><path d="M18 6.42a1 1 0 0 0 1-1V1.91a1 1 0 0 0-2 0v3.51a1 1 0 0 0 1 1z" class="clr-i-solid clr-i-solid-path-1" fill="currentColor"/><path d="M18 29.58a1 1 0 0 0-1 1v3.51a1 1 0 0 0 2 0v-3.51a1 1 0 0 0-1-1z" class="clr-i-solid clr-i-solid-path-2" fill="currentColor"/><path d="M8.4 9.81A1 1 0 0 0 9.81 8.4L7.33 5.92a1 1 0 0 0-1.41 1.41z" class="clr-i-solid clr-i-solid-path-3" fill="currentColor"/><path d="M27.6 26.19a1 1 0 0 0-1.41 1.41l2.48 2.48a1 1 0 0 0 1.41-1.41z" class="clr-i-solid clr-i-solid-path-4" fill="currentColor"/><path d="M6.42 18a1 1 0 0 0-1-1H1.91a1 1 0 0 0 0 2h3.51a1 1 0 0 0 1-1z" class="clr-i-solid clr-i-solid-path-5" fill="currentColor"/><path d="M34.09 17h-3.51a1 1 0 0 0 0 2h3.51a1 1 0 0 0 0-2z" class="clr-i-solid clr-i-solid-path-6" fill="currentColor"/><path d="M8.4 26.19l-2.48 2.48a1 1 0 0 0 1.41 1.41l2.48-2.48a1 1 0 0 0-1.41-1.41z" class="clr-i-solid clr-i-solid-path-7" fill="currentColor"/><path d="M27.6 9.81l2.48-2.48a1 1 0 0 0-1.41-1.41L26.19 8.4a1 1 0 0 0 1.41 1.41z" class="clr-i-solid clr-i-solid-path-8" fill="currentColor"/><circle cx="18" cy="18" r="10" class="clr-i-solid clr-i-solid-path-9" fill="currentColor"/></svg>