<svg width="45" height="45" viewBox="0 0 45 45" fill="none" xmlns="http://www.w3.org/2000/svg">
<path d="M0.886845 36.7406C5.05309 39.3843 9.90185 40.7812 14.9081 40.7812C22.2393 40.7812 28.9575 37.965 33.8268 32.8518C38.4862 27.9581 41.0493 21.3825 40.9218 14.7094C42.6881 13.1981 44.7656 10.3125 44.7656 7.49998C44.7656 6.42185 43.5956 5.73748 42.6468 6.28685C40.9875 7.26185 39.4743 7.51685 37.9181 7.07998C34.74 3.98248 30.0093 3.32998 26.0231 5.47873C22.5393 7.35373 20.6025 10.785 20.7768 14.535C14.8912 13.8169 9.45372 10.8656 5.66247 6.27935C5.03997 5.53123 3.85872 5.61935 3.36372 6.46685C1.53747 9.59435 1.55622 13.2187 3.14435 16.1456C2.38872 16.2787 1.92185 16.9143 1.92185 17.6025C1.92185 20.5443 3.2456 23.2481 5.37747 25.0931C4.97997 25.4756 4.84872 26.0437 5.01747 26.55C5.95497 29.3662 8.07747 31.5675 10.7306 32.67C7.84497 34.0481 4.65372 34.5075 1.8131 34.1587C0.343095 33.96 -0.38253 35.9362 0.886845 36.7406ZM15.2925 33.1518C16.3443 32.3437 15.7856 30.66 14.4656 30.6318C12.1406 30.5831 10.0237 29.4375 8.7056 27.6356C9.34122 27.5943 9.99934 27.4968 10.6256 27.3281C12.0525 26.9418 11.985 24.8831 10.5356 24.5925C7.90497 24.0637 5.8406 22.1475 5.06622 19.68C5.7731 19.8544 6.4931 19.9518 7.21122 19.965C8.63435 19.9725 9.17247 18.1481 8.01185 17.385C5.39622 15.6619 4.2806 12.6187 5.01935 9.75748C9.58685 14.385 15.7837 17.1731 22.3387 17.4881C23.2781 17.5462 23.9831 16.6631 23.7768 15.7687C22.8862 11.9081 25.0425 9.20248 27.3581 7.9556C29.6493 6.7181 33.3281 6.33185 36.1481 9.2906C36.9862 10.1737 39.8137 10.2075 41.2518 9.87185C40.6068 11.0869 39.615 12.24 38.6868 12.8887C38.2912 13.1662 38.0643 13.6275 38.0887 14.1094C38.3906 20.2687 36.0956 26.3925 31.7925 30.9093C27.4575 35.46 21.4631 37.9668 14.91 37.9668C12.3037 37.9668 9.7481 37.5431 7.3331 36.7256C10.2206 36.1668 12.9637 34.9443 15.2925 33.1518Z" fill="white"/>
</svg>
