<svg width="45" height="45" viewBox="0 0 45 45" fill="none" xmlns="http://www.w3.org/2000/svg">
<g clip-path="url(#clip0)">
<path d="M44.9559 13.2301C44.8505 10.8391 44.4639 9.19529 43.91 7.77091C43.3386 6.25897 42.4595 4.90532 41.3078 3.78004C40.1825 2.63723 38.8199 1.74923 37.3255 1.18676C35.8929 0.632867 34.2576 0.24621 31.8666 0.14079C29.4577 0.026441 28.693 0 22.5834 0C16.4738 0 15.7091 0.026441 13.3092 0.131862C10.9181 0.237282 9.27433 0.624283 7.85029 1.17783C6.338 1.74923 4.98436 2.62831 3.85907 3.78004C2.71627 4.90532 1.82861 6.26789 1.26579 7.76233C0.711908 9.19529 0.325251 10.8302 0.21983 13.2212C0.105482 15.6301 0.0790405 16.3948 0.0790405 22.5044C0.0790405 28.614 0.105482 29.3787 0.210902 31.7787C0.316323 34.1697 0.703323 35.8135 1.25721 37.2379C1.82861 38.7498 2.71627 40.1035 3.85907 41.2288C4.98436 42.3716 6.34693 43.2596 7.84136 43.822C9.27433 44.3759 10.9092 44.7626 13.3006 44.868C15.7002 44.9738 16.4653 44.9999 22.5748 44.9999C28.6844 44.9999 29.4492 44.9738 31.8491 44.868C34.2401 44.7626 35.8839 44.3759 37.308 43.822C40.3322 42.6528 42.7232 40.2618 43.8925 37.2379C44.446 35.8049 44.833 34.1697 44.9384 31.7787C45.0438 29.3787 45.0703 28.614 45.0703 22.5044C45.0703 16.3948 45.0614 15.6301 44.9559 13.2301ZM40.9036 31.6029C40.8068 33.8005 40.4376 34.9873 40.1299 35.7785C39.3738 37.7389 37.8179 39.2948 35.8575 40.0509C35.0663 40.3586 33.871 40.7277 31.6819 40.8242C29.3084 40.93 28.5965 40.9561 22.5924 40.9561C16.5882 40.9561 15.8674 40.93 13.5025 40.8242C11.3048 40.7277 10.118 40.3586 9.32687 40.0509C8.3513 39.6904 7.46329 39.119 6.74252 38.3717C5.9953 37.642 5.4239 36.763 5.06334 35.7874C4.75566 34.9962 4.38652 33.8005 4.29003 31.6118C4.18426 29.2383 4.15817 28.5261 4.15817 22.5219C4.15817 16.5177 4.18426 15.797 4.29003 13.4324C4.38652 11.2347 4.75566 10.0479 5.06334 9.25676C5.4239 8.28085 5.9953 7.39318 6.75144 6.67206C7.4808 5.92485 8.35988 5.35345 9.33579 4.99323C10.127 4.68555 11.3226 4.31641 13.5114 4.21957C15.8849 4.11415 16.5971 4.08771 22.6009 4.08771C28.614 4.08771 29.3259 4.11415 31.6908 4.21957C33.8885 4.31641 35.0752 4.68555 35.8664 4.99323C36.842 5.35345 37.73 5.92485 38.4508 6.67206C39.198 7.40177 39.7694 8.28085 40.1299 9.25676C40.4376 10.0479 40.8068 11.2433 40.9036 13.4324C41.009 15.8059 41.0355 16.5177 41.0355 22.5219C41.0355 28.5261 41.009 29.2293 40.9036 31.6029Z" fill="white"/>
<path d="M22.5834 10.9445C16.2015 10.9445 11.0236 16.1222 11.0236 22.5044C11.0236 28.8866 16.2015 34.0643 22.5834 34.0643C28.9657 34.0643 34.1433 28.8866 34.1433 22.5044C34.1433 16.1222 28.9657 10.9445 22.5834 10.9445ZM22.5834 30.003C18.4432 30.003 15.0848 26.645 15.0848 22.5044C15.0848 18.3638 18.4432 15.0058 22.5834 15.0058C26.724 15.0058 30.082 18.3638 30.082 22.5044C30.082 26.645 26.724 30.003 22.5834 30.003Z" fill="white"/>
<path d="M37.2994 10.4875C37.2994 11.9778 36.091 13.1862 34.6004 13.1862C33.1101 13.1862 31.9017 11.9778 31.9017 10.4875C31.9017 8.9968 33.1101 7.78876 34.6004 7.78876C36.091 7.78876 37.2994 8.9968 37.2994 10.4875Z" fill="white"/>
</g>
<defs>
<clipPath id="clip0">
<rect width="45" height="45" fill="white"/>
</clipPath>
</defs>
</svg>
